<svg width="36" height="36" viewBox="0 0 36 36" fill="none" xmlns="http://www.w3.org/2000/svg">
<path d="M32.625 31.5H29.25V4.5H30.375C30.6734 4.5 30.9595 4.38147 31.1705 4.1705C31.3815 3.95952 31.5 3.67337 31.5 3.375C31.5 3.07663 31.3815 2.79048 31.1705 2.5795C30.9595 2.36853 30.6734 2.25 30.375 2.25H5.625C5.32663 2.25 5.04048 2.36853 4.82951 2.5795C4.61853 2.79048 4.5 3.07663 4.5 3.375C4.5 3.67337 4.61853 3.95952 4.82951 4.1705C5.04048 4.38147 5.32663 4.5 5.625 4.5H6.75V31.5H3.375C3.07663 31.5 2.79048 31.6185 2.5795 31.8295C2.36853 32.0405 2.25 32.3266 2.25 32.625C2.25 32.9234 2.36853 33.2095 2.5795 33.4205C2.79048 33.6315 3.07663 33.75 3.375 33.75H32.625C32.9234 33.75 33.2095 33.6315 33.4205 33.4205C33.6315 33.2095 33.75 32.9234 33.75 32.625C33.75 32.3266 33.6315 32.0405 33.4205 31.8295C33.2095 31.6185 32.9234 31.5 32.625 31.5ZM9 4.5H27V31.5H22.5V25.875C22.5 25.5766 22.3815 25.2905 22.1705 25.0795C21.9595 24.8685 21.6734 24.75 21.375 24.75H14.625C14.3266 24.75 14.0405 24.8685 13.8295 25.0795C13.6185 25.2905 13.5 25.5766 13.5 25.875V31.5H9V4.5ZM20.25 31.5H15.75V27H20.25V31.5ZM12.375 9C12.375 8.70163 12.4935 8.41548 12.7045 8.20451C12.9155 7.99353 13.2016 7.875 13.5 7.875H15.75C16.0484 7.875 16.3345 7.99353 16.5455 8.20451C16.7565 8.41548 16.875 8.70163 16.875 9C16.875 9.29837 16.7565 9.58452 16.5455 9.79549C16.3345 10.0065 16.0484 10.125 15.75 10.125H13.5C13.2016 10.125 12.9155 10.0065 12.7045 9.79549C12.4935 9.58452 12.375 9.29837 12.375 9ZM19.125 9C19.125 8.70163 19.2435 8.41548 19.4545 8.20451C19.6655 7.99353 19.9516 7.875 20.25 7.875H22.5C22.7984 7.875 23.0845 7.99353 23.2955 8.20451C23.5065 8.41548 23.625 8.70163 23.625 9C23.625 9.29837 23.5065 9.58452 23.2955 9.79549C23.0845 10.0065 22.7984 10.125 22.5 10.125H20.25C19.9516 10.125 19.6655 10.0065 19.4545 9.79549C19.2435 9.58452 19.125 9.29837 19.125 9ZM12.375 14.625C12.375 14.3266 12.4935 14.0405 12.7045 13.8295C12.9155 13.6185 13.2016 13.5 13.5 13.5H15.75C16.0484 13.5 16.3345 13.6185 16.5455 13.8295C16.7565 14.0405 16.875 14.3266 16.875 14.625C16.875 14.9234 16.7565 15.2095 16.5455 15.4205C16.3345 15.6315 16.0484 15.75 15.75 15.75H13.5C13.2016 15.75 12.9155 15.6315 12.7045 15.4205C12.4935 15.2095 12.375 14.9234 12.375 14.625ZM19.125 14.625C19.125 14.3266 19.2435 14.0405 19.4545 13.8295C19.6655 13.6185 19.9516 13.5 20.25 13.5H22.5C22.7984 13.5 23.0845 13.6185 23.2955 13.8295C23.5065 14.0405 23.625 14.3266 23.625 14.625C23.625 14.9234 23.5065 15.2095 23.2955 15.4205C23.0845 15.6315 22.7984 15.75 22.5 15.75H20.25C19.9516 15.75 19.6655 15.6315 19.4545 15.4205C19.2435 15.2095 19.125 14.9234 19.125 14.625ZM12.375 20.25C12.375 19.9516 12.4935 19.6655 12.7045 19.4545C12.9155 19.2435 13.2016 19.125 13.5 19.125H15.75C16.0484 19.125 16.3345 19.2435 16.5455 19.4545C16.7565 19.6655 16.875 19.9516 16.875 20.25C16.875 20.5484 16.7565 20.8345 16.5455 21.0455C16.3345 21.2565 16.0484 21.375 15.75 21.375H13.5C13.2016 21.375 12.9155 21.2565 12.7045 21.0455C12.4935 20.8345 12.375 20.5484 12.375 20.25ZM19.125 20.25C19.125 19.9516 19.2435 19.6655 19.4545 19.4545C19.6655 19.2435 19.9516 19.125 20.25 19.125H22.5C22.7984 19.125 23.0845 19.2435 23.2955 19.4545C23.5065 19.6655 23.625 19.9516 23.625 20.25C23.625 20.5484 23.5065 20.8345 23.2955 21.0455C23.0845 21.2565 22.7984 21.375 22.5 21.375H20.25C19.9516 21.375 19.6655 21.2565 19.4545 21.0455C19.2435 20.8345 19.125 20.5484 19.125 20.25Z" fill="white"/>
</svg>
