<svg width="85" height="77" viewBox="0 0 85 77" fill="none" xmlns="http://www.w3.org/2000/svg">
<path d="M84.2618 29.6349C83.7481 30.404 82.9525 30.9401 82.0468 31.1272C81.1411 31.3143 80.1981 31.1375 79.4218 30.6349L43.7818 7.40494C43.3737 7.14063 42.8979 7 42.4118 7C41.9256 7 41.4498 7.14063 41.0418 7.40494L5.41177 30.6549C4.63336 31.1615 3.6856 31.3381 2.77699 31.1459C1.86838 30.9536 1.07334 30.4083 0.566774 29.6299C0.0602103 28.8515 -0.116383 27.9038 0.0758414 26.9952C0.268066 26.0865 0.813363 25.2915 1.59177 24.7849L37.2218 1.54494C38.765 0.536838 40.5684 0 42.4118 0C44.2551 0 46.0585 0.536838 47.6018 1.54494L83.2418 24.7849C83.6277 25.036 83.9602 25.3608 84.2204 25.7406C84.4806 26.1204 84.6633 26.5478 84.7581 26.9983C84.8528 27.4488 84.8578 27.9136 84.7726 28.3661C84.6874 28.8185 84.5138 29.2497 84.2618 29.6349ZM19.1918 34.4649V66.5949C19.1944 67.2572 19.4586 67.8915 19.9269 68.3598C20.3952 68.8281 21.0295 69.0923 21.6918 69.0949H30.2718V52.3249C30.2718 49.1052 31.5508 46.0174 33.8275 43.7407C36.1042 41.464 39.192 40.1849 42.4118 40.1849C45.6315 40.1849 48.7194 41.464 50.9961 43.7407C53.2727 46.0174 54.5518 49.1052 54.5518 52.3249V69.0949H63.1318C63.794 69.0923 64.4284 68.8281 64.8966 68.3598C65.3649 67.8915 65.6291 67.2572 65.6318 66.5949V37.5049C65.6318 36.5767 66.0005 35.6864 66.6569 35.0301C67.3133 34.3737 68.2035 34.0049 69.1318 34.0049C70.06 34.0049 70.9503 34.3737 71.6066 35.0301C72.263 35.6864 72.6318 36.5767 72.6318 37.5049V66.5949C72.6265 69.1129 71.6239 71.5262 69.8435 73.3066C68.063 75.0871 65.6497 76.0897 63.1318 76.0949H21.6918C19.1738 76.0897 16.7605 75.0871 14.9801 73.3066C13.1996 71.5262 12.1971 69.1129 12.1918 66.5949V34.4649C12.1918 33.5367 12.5605 32.6464 13.2169 31.9901C13.8733 31.3337 14.7635 30.9649 15.6918 30.9649C16.62 30.9649 17.5103 31.3337 18.1666 31.9901C18.823 32.6464 19.1918 33.5367 19.1918 34.4649ZM37.2718 69.0949H47.5518V52.3249C47.5518 50.9617 47.0102 49.6543 46.0463 48.6904C45.0824 47.7265 43.775 47.1849 42.4118 47.1849C41.0486 47.1849 39.7412 47.7265 38.7772 48.6904C37.8133 49.6543 37.2718 50.9617 37.2718 52.3249V69.0949ZM58.5518 32.7449V26.7449C58.5518 25.8167 58.183 24.9264 57.5266 24.2701C56.8703 23.6137 55.98 23.2449 55.0518 23.2449C54.1235 23.2449 53.2333 23.6137 52.5769 24.2701C51.9205 24.9264 51.5518 25.8167 51.5518 26.7449V32.7449C51.5518 33.6732 51.9205 34.5634 52.5769 35.2198C53.2333 35.8762 54.1235 36.2449 55.0518 36.2449C55.98 36.2449 56.8703 35.8762 57.5266 35.2198C58.183 34.5634 58.5518 33.6732 58.5518 32.7449Z" fill="white"/>
</svg>
