<svg width="230" height="52" viewBox="0 0 230 52" fill="none" xmlns="http://www.w3.org/2000/svg">
<path d="M87.0703 25H76.0156V23.9453H79.1406V2.61719H76.0156V1.5625H87.0703V2.61719H83.9453V12.8516L95.1953 2.61719H92.0703V1.5625H99.2578C99.2057 2.05729 98.8542 2.40885 98.2031 2.61719C98.0208 2.61719 97.8255 2.64323 97.6172 2.69531C97.0703 2.79948 96.263 3.35938 95.1953 4.375L88.9062 10.1172L98.6719 23.9453H99.2578C99.8047 23.9974 100.156 24.349 100.312 25L93.4766 25.0391L85.4688 13.2812L83.9453 14.6484V23.9453H86.0156C86.5625 23.9974 86.9141 24.349 87.0703 25ZM111.055 23.9844C111.185 23.9844 111.302 23.9974 111.406 24.0234C111.797 24.0755 111.992 24.401 111.992 25H102.617V23.9844C103.138 23.9844 103.555 23.9453 103.867 23.8672C104.727 23.6589 105.156 22.9948 105.156 21.875V9.25781H102.617V8.28125H109.453V23.9844H111.055ZM109.844 2.96875C109.844 3.41146 109.74 3.82812 109.531 4.21875C109.036 5.13021 108.255 5.58594 107.188 5.58594C106.771 5.58594 106.367 5.49479 105.977 5.3125C105.013 4.84375 104.531 4.0625 104.531 2.96875C104.531 2.55208 104.635 2.13542 104.844 1.71875C105.339 0.755208 106.12 0.273438 107.188 0.273438C107.604 0.273438 108.008 0.377603 108.398 0.585937C109.362 1.10677 109.844 1.90104 109.844 2.96875ZM123.086 23.9844C123.242 23.9844 123.398 23.9974 123.555 24.0234C123.893 24.1016 124.062 24.4271 124.062 25H115.078V23.9844C115.547 23.9844 115.951 23.9453 116.289 23.8672C117.148 23.6849 117.578 23.0208 117.578 21.875V9.25781H115.078V8.28125H121.641L121.836 11.5234C122.096 10.9766 122.435 10.4557 122.852 9.96094C124.154 8.47656 125.742 7.73438 127.617 7.73438C128.398 7.73438 129.128 7.8776 129.805 8.16406C131.94 9.04948 133.008 11.0286 133.008 14.1016V23.9844H134.531C134.688 23.9844 134.844 23.9974 135 24.0234C135.339 24.1016 135.508 24.4271 135.508 25H126.562V23.9844C127.109 23.9844 127.526 23.9323 127.812 23.8281C128.411 23.6198 128.711 22.9688 128.711 21.875V13.5156C128.711 12.9427 128.646 12.4219 128.516 11.9531C128.125 10.4167 127.201 9.64844 125.742 9.64844C125.247 9.64844 124.753 9.77865 124.258 10.0391C122.878 10.8203 122.096 12.2526 121.914 14.3359L121.875 23.9844H123.086ZM143.594 14.2188C143.594 15.5469 143.672 16.5755 143.828 17.3047C144.193 18.8932 145.13 19.6875 146.641 19.6875C147.37 19.6875 147.969 19.5182 148.438 19.1797C149.323 18.5026 149.766 16.8229 149.766 14.1406C149.766 12.7604 149.674 11.7057 149.492 10.9766C149.128 9.49219 148.19 8.75 146.68 8.75C145.898 8.75 145.286 8.93229 144.844 9.29688C144.01 9.94792 143.594 11.5885 143.594 14.2188ZM146.797 7.73438C148.49 7.73438 149.948 8.09896 151.172 8.82812C151.276 8.48958 151.419 8.15104 151.602 7.8125C152.357 6.40625 153.385 5.70312 154.688 5.70312C155.104 5.70312 155.495 5.76823 155.859 5.89844C156.745 6.26302 157.188 6.90104 157.188 7.8125C157.188 7.91667 157.174 8.03385 157.148 8.16406C156.992 8.86719 156.549 9.21875 155.82 9.21875C155.534 9.21875 155.208 9.07552 154.844 8.78906C154.349 8.34635 153.932 8.125 153.594 8.125C152.891 8.15104 152.357 8.58073 151.992 9.41406C153.398 10.612 154.115 12.1615 154.141 14.0625C154.141 15.4948 153.698 16.7969 152.812 17.9688C151.406 19.7917 149.349 20.7031 146.641 20.7031H146.523L142.695 20.6641C142.565 20.6641 142.422 20.6771 142.266 20.7031C141.562 20.8333 141.211 21.1979 141.211 21.7969C141.211 21.875 141.224 21.9661 141.25 22.0703C141.38 22.7214 141.849 23.0599 142.656 23.0859L150.43 23.2422C150.872 23.2422 151.302 23.2812 151.719 23.3594C154.349 23.776 155.664 25.1823 155.664 27.5781C155.664 28.2812 155.469 28.9583 155.078 29.6094C153.802 31.5625 151.081 32.5391 146.914 32.5391C145.221 32.5391 143.776 32.3047 142.578 31.8359C140.781 31.1328 139.883 30.0781 139.883 28.6719C139.883 27.8125 140.247 26.9792 140.977 26.1719C139.987 25.4167 139.479 24.401 139.453 23.125C139.453 22.6302 139.544 22.1484 139.727 21.6797C140.299 20.2995 141.341 19.6224 142.852 19.6484C142.565 19.4661 142.279 19.2708 141.992 19.0625C140.143 17.6823 139.219 16.0417 139.219 14.1406C139.219 12.7344 139.635 11.4974 140.469 10.4297C141.875 8.63281 143.984 7.73438 146.797 7.73438ZM146.914 31.5234C148.164 31.5234 149.323 31.4062 150.391 31.1719C152.656 30.6771 153.789 29.8307 153.789 28.6328C153.789 28.3724 153.737 28.138 153.633 27.9297C153.372 27.3568 152.409 27.0573 150.742 27.0312L143.438 26.9531C142.943 26.9531 142.435 26.862 141.914 26.6797C141.471 27.2786 141.237 27.8776 141.211 28.4766C141.211 28.8151 141.289 29.1406 141.445 29.4531C142.148 30.8333 143.971 31.5234 146.914 31.5234Z" fill="#E11631"/>
<path d="M67.6757 1.58594V52H60.4688V1.58594H67.6757ZM91.9608 52H88.8827V38.4375H80.3047V52H77.2422V35.3594H80.3047V38.2969C80.3255 37.8906 80.4192 37.5104 80.5858 37.1562C80.7525 36.7917 80.9714 36.4792 81.2422 36.2188C81.5234 35.9479 81.8463 35.7396 82.2108 35.5938C82.5754 35.4375 82.966 35.3594 83.3827 35.3594H88.8827C89.3098 35.3594 89.7108 35.4427 90.0858 35.6094C90.4608 35.7656 90.7839 35.9844 91.0547 36.2656C91.3359 36.5365 91.5546 36.8594 91.7108 37.2344C91.8775 37.6094 91.9608 38.0104 91.9608 38.4375V52ZM107.633 48.9219V45.0625H100.336C99.9088 45.0625 99.5077 44.9844 99.1327 44.8281C98.7577 44.6615 98.4296 44.4427 98.1483 44.1719C97.8775 43.8906 97.6589 43.5625 97.4922 43.1875C97.3359 42.8125 97.2577 42.4115 97.2577 41.9844V38.4375C97.2577 38.0104 97.3359 37.6094 97.4922 37.2344C97.6589 36.8594 97.8775 36.5365 98.1483 36.2656C98.4296 35.9844 98.7577 35.7656 99.1327 35.6094C99.5077 35.4427 99.9088 35.3594 100.336 35.3594H110.07V38.4375H100.336V41.9844H107.633C108.06 41.9844 108.456 42.0677 108.82 42.2344C109.195 42.3906 109.523 42.6094 109.805 42.8906C110.086 43.1615 110.305 43.4844 110.461 43.8594C110.628 44.2344 110.711 44.6354 110.711 45.0625V48.9219C110.711 49.349 110.628 49.75 110.461 50.125C110.305 50.5 110.086 50.8281 109.805 51.1094C109.523 51.3802 109.195 51.599 108.82 51.7656C108.456 51.9219 108.06 52 107.633 52H97.2577V48.9219H107.633ZM116.023 35.3594H119.086V48.9219H127.664V35.3594H130.742V52H127.664V49.1875C127.633 49.5729 127.529 49.9375 127.352 50.2812C127.174 50.625 126.945 50.9271 126.664 51.1875C126.393 51.4375 126.081 51.6354 125.727 51.7812C125.372 51.9271 124.997 52 124.602 52H119.086C118.669 52 118.273 51.9219 117.898 51.7656C117.523 51.599 117.195 51.3802 116.914 51.1094C116.643 50.8281 116.424 50.5 116.258 50.125C116.102 49.75 116.023 49.349 116.023 48.9219V35.3594ZM139.43 38.4375V52H136.367V35.3594H139.43V38.2969C139.451 37.8906 139.544 37.5104 139.711 37.1562C139.878 36.7917 140.096 36.4792 140.367 36.2188C140.648 35.9479 140.971 35.7396 141.336 35.5938C141.701 35.4375 142.091 35.3594 142.508 35.3594H145.773C146.201 35.3594 146.596 35.4427 146.961 35.6094C147.336 35.7656 147.664 35.9844 147.945 36.2656C148.227 36.5365 148.445 36.8594 148.602 37.2344C148.768 37.6094 148.852 38.0104 148.852 38.4375V41.25H145.773V38.4375H139.43ZM153.18 44.7344C153.18 44.3073 153.258 43.9115 153.414 43.5469C153.581 43.1719 153.799 42.8438 154.07 42.5625C154.352 42.2812 154.68 42.0625 155.055 41.9062C155.43 41.7396 155.826 41.6562 156.242 41.6562H164.18V38.4375H154.133V35.3594H164.18C164.607 35.3594 165.008 35.4427 165.383 35.6094C165.758 35.7656 166.081 35.9844 166.352 36.2656C166.633 36.5365 166.852 36.8594 167.008 37.2344C167.174 37.6094 167.258 38.0104 167.258 38.4375V52H164.18V49.1875C164.148 49.5729 164.044 49.9375 163.867 50.2812C163.69 50.625 163.461 50.9271 163.18 51.1875C162.909 51.4375 162.596 51.6354 162.242 51.7812C161.888 51.9271 161.513 52 161.117 52H156.242C155.826 52 155.43 51.9219 155.055 51.7656C154.68 51.599 154.352 51.3802 154.07 51.1094C153.799 50.8281 153.581 50.5 153.414 50.125C153.258 49.75 153.18 49.349 153.18 48.9219V44.7344ZM156.242 48.9219H164.18V44.7344H156.242V48.9219ZM187.617 52H184.539V38.4375H175.961V52H172.898V35.3594H175.961V38.2969C175.982 37.8906 176.076 37.5104 176.242 37.1562C176.409 36.7917 176.628 36.4792 176.898 36.2188C177.18 35.9479 177.503 35.7396 177.867 35.5938C178.232 35.4375 178.622 35.3594 179.039 35.3594H184.539C184.966 35.3594 185.367 35.4427 185.742 35.6094C186.117 35.7656 186.44 35.9844 186.711 36.2656C186.992 36.5365 187.211 36.8594 187.367 37.2344C187.534 37.6094 187.617 38.0104 187.617 38.4375V52ZM196.305 38.4375V48.9219H204.242V46.1094H207.32V48.9219C207.32 49.349 207.237 49.75 207.07 50.125C206.914 50.5 206.695 50.8281 206.414 51.1094C206.143 51.3802 205.82 51.599 205.445 51.7656C205.07 51.9219 204.669 52 204.242 52H196.305C195.888 52 195.492 51.9219 195.117 51.7656C194.742 51.599 194.414 51.3802 194.133 51.1094C193.862 50.8281 193.643 50.5 193.477 50.125C193.32 49.75 193.242 49.349 193.242 48.9219V38.4375C193.242 38.0104 193.32 37.6094 193.477 37.2344C193.643 36.8594 193.862 36.5365 194.133 36.2656C194.414 35.9844 194.742 35.7656 195.117 35.6094C195.492 35.4427 195.888 35.3594 196.305 35.3594H204.242C204.669 35.3594 205.07 35.4427 205.445 35.6094C205.82 35.7656 206.143 35.9844 206.414 36.2656C206.695 36.5365 206.914 36.8594 207.07 37.2344C207.237 37.6094 207.32 38.0104 207.32 38.4375V41.25H204.242V38.4375H196.305ZM227.039 45.25H216.023V48.9219H227.039V52H216.023C215.607 52 215.211 51.9219 214.836 51.7656C214.461 51.599 214.133 51.3802 213.852 51.1094C213.581 50.8281 213.362 50.5 213.195 50.125C213.039 49.75 212.961 49.349 212.961 48.9219V38.4375C212.961 38.0104 213.039 37.6094 213.195 37.2344C213.362 36.8594 213.581 36.5365 213.852 36.2656C214.133 35.9844 214.461 35.7656 214.836 35.6094C215.211 35.4427 215.607 35.3594 216.023 35.3594H223.961C224.388 35.3594 224.789 35.4427 225.164 35.6094C225.539 35.7656 225.862 35.9844 226.133 36.2656C226.414 36.5365 226.633 36.8594 226.789 37.2344C226.956 37.6094 227.039 38.0104 227.039 38.4375V45.25ZM216.023 38.4375V42.1719H223.961V38.4375H216.023Z" fill="#E11631"/>
<path fill-rule="evenodd" clip-rule="evenodd" d="M2.34882 26.5001C2.34882 13.7442 12.661 3.38242 25.4068 3.38242C35.1199 3.38242 43.4177 9.39995 46.8175 17.9068L44.2642 16.7317C43.6746 16.4595 42.9772 16.7248 42.7088 17.3251C42.4404 17.9231 42.6996 18.6305 43.2915 18.9004L47.6548 20.9108L48.7881 21.432L49.2378 20.2546L50.9193 15.8475C51.1556 15.2332 50.8551 14.5445 50.2495 14.3071C49.6439 14.0721 48.9648 14.3769 48.7285 14.9912L48.4464 15.7335C44.3996 7.02647 35.5995 1 25.4071 1C11.3881 1 0 12.4042 0 26.5004C0 27.2333 0.0298229 27.9593 0.0917634 28.676C0.151408 29.3787 0.82129 29.844 1.50031 29.6812C2.08759 29.5392 2.47068 28.9715 2.42252 28.3595C2.37435 27.7475 2.34882 27.126 2.34882 26.5001ZM5.22558 37.6875L7.89133 38.6439C8.50387 38.8626 9.17373 38.5368 9.38938 37.9178C9.60502 37.2966 9.28615 36.6148 8.6736 36.3961L4.14968 34.7765L2.9774 34.3554L2.63099 35.5677L1.33943 40.1074C1.1582 40.738 1.51837 41.3988 2.14008 41.5827C2.76407 41.7642 3.41561 41.3989 3.59455 40.7683L3.82396 39.9631C8.31117 47.1929 16.3038 52 25.4067 52C39.4258 52 50.8138 40.5957 50.8138 26.4996C50.8138 26.2437 50.5982 26.0459 50.3481 26.0622L48.7652 26.1715C48.5955 26.1832 48.4647 26.3274 48.4647 26.4996C48.4647 39.2555 38.1526 49.6173 25.4067 49.6173C16.7143 49.6173 9.15511 44.7982 5.22558 37.6875ZM24.7505 10.966C25.3034 10.3773 26.3104 10.3889 26.8541 10.9846C28.655 12.9555 32.7387 16.5807 38.6779 16.9646C39.2629 17.0018 39.7677 17.4463 39.8273 18.0396C41.4354 34.2301 28.9167 41.8876 26.2898 43.3071C25.9869 43.4723 25.6405 43.4723 25.3377 43.3071C22.7592 41.9086 10.6421 34.4392 11.8254 18.0724C11.8713 17.4651 12.3806 17.002 12.9793 16.9601C18.7581 16.5553 22.9082 12.9273 24.7505 10.966ZM32.5044 22.0396C32.8829 22.3491 32.9426 22.9122 32.6375 23.2962L26.283 31.277C25.7623 31.9286 24.8125 32.017 24.184 31.4702L20.1532 27.9659C19.7839 27.6448 19.7403 27.0817 20.0569 26.7071C20.3735 26.3325 20.9309 26.2882 21.3003 26.6094L25.1016 29.9135L31.2658 22.1721C31.5732 21.7882 32.1258 21.7302 32.5044 22.0396Z" fill="#E11631"/>
</svg>
