<svg xmlns="http://www.w3.org/2000/svg" viewBox="0 0 96 120" x="0px" y="0px"><title>home</title><g data-name="1"><path d="M89.85,39.59a3.52,3.52,0,0,1-4.84,1L49.37,17.36a2.52,2.52,0,0,0-2.74,0L11,40.61a3.5,3.5,0,0,1-3.82-5.87L42.81,11.5a9.49,9.49,0,0,1,10.38,0L88.83,34.74A3.5,3.5,0,0,1,89.85,39.59ZM24.78,44.42V76.55a2.51,2.51,0,0,0,2.5,2.5h8.58V62.28a12.14,12.14,0,1,1,24.28,0V79.05h8.58a2.51,2.51,0,0,0,2.5-2.5V47.46a3.5,3.5,0,0,1,7,0V76.55a9.52,9.52,0,0,1-9.5,9.5H27.28a9.52,9.52,0,0,1-9.5-9.5V44.42a3.5,3.5,0,0,1,7,0ZM42.86,79.05H53.14V62.28a5.14,5.14,0,1,0-10.28,0ZM64.14,42.7v-6a3.5,3.5,0,0,0-7,0v6a3.5,3.5,0,0,0,7,0Z"/></g><text x="0" y="111" fill="#000000" font-size="5px" font-weight="bold" font-family="'Helvetica Neue', Helvetica, Arial-Unicode, Arial, Sans-serif">Created by Geni Alando</text><text x="0" y="116" fill="#000000" font-size="5px" font-weight="bold" font-family="'Helvetica Neue', Helvetica, Arial-Unicode, Arial, Sans-serif">from the Noun Project</text></svg>