<svg width="76" height="95" viewBox="0 0 76 95" fill="none" xmlns="http://www.w3.org/2000/svg">
<path d="M75.1091 51.1017C74.5271 50.5137 73.7521 50.0017 72.9291 50.0017H66.5791C66.4871 50.0017 66.3991 50.1947 66.3081 50.2057C64.0521 46.7837 62.0811 44.7217 61.0541 43.6927C57.9391 40.5797 48.7611 39.3017 40.2641 39.0517C39.9501 35.5557 38.7451 33.0707 36.6711 31.6287C36.3821 31.4287 36.0861 31.2767 35.7891 31.1297L36.8511 23.2887C36.8821 23.0697 36.8251 22.8517 36.6901 22.6757L19.6731 0.328699C19.3981 -0.0353005 18.8761 -0.1093 18.5101 0.1687L2.34006 12.4737C2.16706 12.6077 2.05106 12.8077 2.02106 13.0297C1.99106 13.2447 2.04906 13.4657 2.18406 13.6407L19.2021 35.9957C19.3331 36.1717 19.5321 36.2867 19.7481 36.3147L33.9891 38.2447C34.0261 38.2497 34.0631 38.2537 34.1001 38.2537C34.2811 38.2537 34.4581 38.1927 34.6021 38.0867C34.7791 37.9517 34.8941 37.7547 34.9231 37.5337L35.5491 32.9087C35.6111 32.9477 35.6741 32.9817 35.7341 33.0237C37.3351 34.1427 38.2861 36.1607 38.5851 39.0037C29.3941 39.0207 18.4151 40.2737 14.9471 43.7387C13.9201 44.7667 11.9491 46.7597 9.69306 50.1817C9.60106 50.1697 9.51306 50.0017 9.42206 50.0017H3.07206C2.25006 50.0017 1.47406 50.4877 0.892058 51.0757C0.312058 51.6597 -0.00494174 52.5977 5.82574e-05 53.4187V56.2677C5.82574e-05 57.8427 1.20806 59.2947 2.75106 59.5777L4.66406 59.9437C2.08706 66.4197 0.104058 75.4607 3.13406 84.8447L3.13106 90.2827C3.13106 93.0987 4.08206 95.0017 5.67406 95.0017H12.9351C14.5291 95.0017 15.0021 92.8747 15.0021 90.0587V87.4147C21.0021 87.9277 29.0021 88.4587 37.0021 88.5227V88.5847C46.0021 88.5847 54.0021 88.0097 61.0021 87.4637V90.1077C61.0021 92.9247 61.4751 95.0017 63.0661 95.0017H70.3281C71.9201 95.0017 72.8711 93.1237 72.8711 90.3077L72.8671 84.9947C75.8961 75.6097 73.9141 66.5187 71.3381 60.0437L73.2501 59.6527C74.7931 59.3687 76.0021 57.8927 76.0021 56.3167V53.4677C76.0081 52.6477 75.6901 51.6847 75.1091 51.1017ZM33.3891 36.4887L20.3131 34.7187L4.00806 13.2977L18.8551 1.9977L35.1601 23.4117L34.1911 30.5627C33.6371 30.4307 33.0961 30.3607 32.5921 30.3357C32.4941 30.0917 32.3751 29.8557 32.2121 29.6397C31.2631 28.3907 29.3401 28.1257 28.0801 29.0807C26.7901 30.0667 26.5401 31.9187 27.5221 33.2137C28.0831 33.9537 28.9381 34.3767 29.8671 34.3767C30.5191 34.3767 31.1371 34.1647 31.6501 33.7697C32.2231 33.3397 32.5991 32.7197 32.7421 32.0207C33.1351 32.0517 33.5481 32.1157 33.9661 32.2257L33.3891 36.4887ZM29.0711 31.6587C29.1961 32.0967 29.6501 32.3507 30.1001 32.2267C30.1101 32.2257 30.4501 32.1337 30.9831 32.0657C30.8981 32.2117 30.7851 32.3417 30.6431 32.4497C30.1011 32.8707 29.2561 32.7487 28.8441 32.2067C28.4151 31.6407 28.5251 30.8317 29.0891 30.3977C29.3151 30.2267 29.5831 30.1347 29.8661 30.1347C30.1681 30.1347 30.4491 30.2387 30.6751 30.4227C30.0731 30.5077 29.6841 30.6167 29.6351 30.6317C29.1961 30.7587 28.9431 31.2167 29.0711 31.6587ZM72.6411 56.5117L66.6371 57.5877L67.4941 59.4627C70.2011 65.5127 72.7671 74.6867 69.6291 84.1197L69.5451 84.3667L69.5491 89.9727C69.5491 90.4597 69.5021 91.0007 69.4471 91.0007H63.9451C63.8931 91.0017 64.0021 90.5957 64.0021 90.1077V83.8227L62.2191 83.9897C56.3481 84.5387 47.0021 85.1877 39.0021 85.2587V85.2157C30.0021 85.2157 20.2261 84.5227 14.0051 83.9407L12.0021 83.7727V90.0577C12.0021 90.5457 12.1111 91.0017 12.0581 91.0017H6.55606C6.50106 91.0017 6.45406 90.4317 6.45406 89.9427L6.45906 84.2497L6.37406 84.0227C3.23506 74.5887 5.80206 65.4107 8.50906 59.3607L9.36706 57.4557L3.36206 56.4817L3.32606 54.0017H9.42306L10.8961 55.2037L11.7711 53.3417C13.5141 50.5567 15.4191 47.8987 17.1851 46.1327C19.2911 44.0227 27.0021 42.4837 37.0021 42.3377V42.3737C48.0021 42.3737 56.3791 43.9177 58.5961 46.1387C60.3621 47.9047 62.4351 50.5197 64.1771 53.3037L65.0801 55.2287L66.5801 54.0017H72.6781L72.6411 56.5117Z" fill="white"/>
<path d="M63.242 63.959C59.955 63.959 57.281 66.637 57.281 69.922C57.281 73.214 59.955 75.89 63.242 75.89C66.529 75.89 69.203 73.214 69.203 69.922C69.203 66.637 66.529 63.959 63.242 63.959ZM63.242 74.23C60.873 74.23 58.941 72.295 58.941 69.922C58.941 67.55 60.873 65.62 63.242 65.62C65.613 65.62 67.543 67.55 67.543 69.922C67.543 72.295 65.613 74.23 63.242 74.23Z" fill="white"/>
<path d="M39.0021 43.272V43.209C29.0021 43.209 19.7471 44.744 17.6241 46.867C15.0421 49.454 11.2632 54.398 8.58515 60.51C8.48115 60.755 8.46215 61.031 8.59315 61.26C8.72615 61.49 8.94215 61.64 9.20215 61.668C12.2952 62.023 17.5131 61.75 23.3911 61.398C27.6421 61.147 33.0021 60.865 37.0021 60.814V60.853C42.0021 60.853 47.6651 61.169 52.3531 61.447C58.2321 61.799 63.6592 62.072 66.7502 61.717C67.0122 61.689 67.2771 61.539 67.4101 61.309C67.5411 61.08 67.5712 60.804 67.4682 60.559C64.7902 54.448 61.2212 49.503 58.6392 46.916C56.6182 44.896 48.0021 43.411 39.0021 43.272ZM52.7182 59.791C48.4462 59.535 44.0021 59.253 39.0021 59.203V59.142C33.0021 59.142 28.2611 59.458 23.5531 59.741C18.4581 60.045 13.5942 60.301 10.5882 60.118C13.1352 54.69 16.3461 50.264 18.5661 48.041C19.8281 46.782 26.0021 45.032 37.0021 44.884V44.919C49.0021 44.919 55.8862 46.775 57.2042 48.091C59.4252 50.315 62.9352 54.74 65.4822 60.168C62.4772 60.351 57.8142 60.095 52.7182 59.791Z" fill="white"/>
<path d="M12.761 63.9102C9.47503 63.9102 6.80103 66.5882 6.80103 69.8732C6.80103 73.1652 9.47503 75.8412 12.761 75.8412C16.048 75.8412 18.723 73.1652 18.723 69.8732C18.723 66.5882 16.048 63.9102 12.761 63.9102ZM12.761 74.1812C10.391 74.1812 8.46103 72.2462 8.46103 69.8732C8.46103 67.5012 10.391 65.5712 12.761 65.5712C15.131 65.5712 17.062 67.5012 17.062 69.8732C17.062 72.2462 15.131 74.1812 12.761 74.1812Z" fill="white"/>
</svg>
