<svg width="36" height="36" viewBox="0 0 36 36" fill="none" xmlns="http://www.w3.org/2000/svg">
<mask id="path-1-inside-1_958_1354" fill="white">
<path d="M30 12H33V9L30 6H4.5C3.70435 6 2.94129 6.31607 2.37868 6.87868C1.81607 7.44129 1.5 8.20435 1.5 9V22.5C1.5 23.2956 1.81607 24.0587 2.37868 24.6213C2.94129 25.1839 3.70435 25.5 4.5 25.5H6C6 26.6935 6.47411 27.8381 7.31802 28.682C8.16193 29.5259 9.30653 30 10.5 30C11.6935 30 12.8381 29.5259 13.682 28.682C14.5259 27.8381 15 26.6935 15 25.5H22.5C22.5 26.6935 22.9741 27.8381 23.818 28.682C24.6619 29.5259 25.8065 30 27 30C28.1935 30 29.3381 29.5259 30.182 28.682C31.0259 27.8381 31.5 26.6935 31.5 25.5H34.5V18M10.5 27.75C9.90326 27.75 9.33097 27.5129 8.90901 27.091C8.48705 26.669 8.25 26.0967 8.25 25.5C8.25 24.9033 8.48705 24.331 8.90901 23.909C9.33097 23.4871 9.90326 23.25 10.5 23.25C11.0967 23.25 11.669 23.4871 12.091 23.909C12.5129 24.331 12.75 24.9033 12.75 25.5C12.75 26.0967 12.5129 26.669 12.091 27.091C11.669 27.5129 11.0967 27.75 10.5 27.75ZM13.5 18H4.5V13.5H13.5M21 22.5H16.5V13.5H21M27 27.75C26.555 27.75 26.12 27.618 25.75 27.3708C25.38 27.1236 25.0916 26.7722 24.9213 26.361C24.751 25.9499 24.7064 25.4975 24.7932 25.061C24.88 24.6246 25.0943 24.2237 25.409 23.909C25.7237 23.5943 26.1246 23.38 26.561 23.2932C26.9975 23.2064 27.4499 23.251 27.861 23.4213C28.2722 23.5916 28.6236 23.88 28.8708 24.25C29.118 24.62 29.25 25.055 29.25 25.5C29.2348 26.092 28.9929 26.6555 28.5742 27.0742C28.1555 27.4929 27.592 27.7348 27 27.75ZM25.5 18V14.25H29.25L32.25 18H25.5Z"/>
</mask>
<path d="M33 12V13.5H34.5V12H33ZM33 9H34.5V8.37868L34.0607 7.93934L33 9ZM30 6L31.0607 4.93934L30.6213 4.5H30V6ZM4.5 6L4.5 4.5L4.5 6ZM1.5 9H0H1.5ZM1.5 22.5H0H1.5ZM6 25.5H7.5V24H6V25.5ZM10.5 30L10.5 31.5L10.5 30ZM15 25.5V24H13.5V25.5H15ZM22.5 25.5H24V24H22.5V25.5ZM27 30L27 31.5L27 30ZM31.5 25.5V24H30L30 25.5L31.5 25.5ZM34.5 25.5V27H36V25.5H34.5ZM10.5 23.25L10.5 21.75L10.5 23.25ZM4.5 18H3V19.5H4.5V18ZM4.5 13.5V12H3V13.5H4.5ZM16.5 22.5H15V24H16.5V22.5ZM16.5 13.5V12H15V13.5H16.5ZM27 27.75V29.25H27.0192L27.0385 29.2495L27 27.75ZM29.25 25.5L30.7495 25.5385L30.75 25.5192V25.5H29.25ZM25.5 18H24V19.5H25.5V18ZM25.5 14.25V12.75H24V14.25H25.5ZM29.25 14.25L30.4213 13.313L29.9709 12.75H29.25V14.25ZM32.25 18V19.5H35.3709L33.4213 17.063L32.25 18ZM30 13.5H33V10.5H30V13.5ZM34.5 12V9H31.5V12H34.5ZM34.0607 7.93934L31.0607 4.93934L28.9393 7.06066L31.9393 10.0607L34.0607 7.93934ZM30 4.5H4.5V7.5H30V4.5ZM4.5 4.5C3.30653 4.5 2.16193 4.97411 1.31802 5.81802L3.43934 7.93934C3.72064 7.65804 4.10218 7.5 4.5 7.5L4.5 4.5ZM1.31802 5.81802C0.474106 6.66193 0 7.80653 0 9L3 9C3 8.60218 3.15804 8.22064 3.43934 7.93934L1.31802 5.81802ZM0 9V22.5H3V9H0ZM0 22.5C0 23.6935 0.474106 24.8381 1.31802 25.682L3.43934 23.5607C3.15804 23.2794 3 22.8978 3 22.5H0ZM1.31802 25.682C2.16193 26.5259 3.30653 27 4.5 27V24C4.10218 24 3.72064 23.842 3.43934 23.5607L1.31802 25.682ZM4.5 27H6V24H4.5V27ZM4.5 25.5C4.5 27.0913 5.13214 28.6174 6.25736 29.7426L8.37868 27.6213C7.81607 27.0587 7.5 26.2956 7.5 25.5H4.5ZM6.25736 29.7426C7.38258 30.8679 8.9087 31.5 10.5 31.5L10.5 28.5C9.70435 28.5 8.94129 28.1839 8.37868 27.6213L6.25736 29.7426ZM10.5 31.5C12.0913 31.5 13.6174 30.8679 14.7426 29.7426L12.6213 27.6213C12.0587 28.1839 11.2957 28.5 10.5 28.5L10.5 31.5ZM14.7426 29.7426C15.8679 28.6174 16.5 27.0913 16.5 25.5H13.5C13.5 26.2957 13.1839 27.0587 12.6213 27.6213L14.7426 29.7426ZM15 27H22.5V24H15V27ZM21 25.5C21 27.0913 21.6321 28.6174 22.7574 29.7426L24.8787 27.6213C24.3161 27.0587 24 26.2957 24 25.5H21ZM22.7574 29.7426C23.8826 30.8679 25.4087 31.5 27 31.5L27 28.5C26.2043 28.5 25.4413 28.1839 24.8787 27.6213L22.7574 29.7426ZM27 31.5C28.5913 31.5 30.1174 30.8679 31.2426 29.7426L29.1213 27.6213C28.5587 28.1839 27.7957 28.5 27 28.5L27 31.5ZM31.2426 29.7426C32.3679 28.6174 33 27.0913 33 25.5L30 25.5C30 26.2957 29.6839 27.0587 29.1213 27.6213L31.2426 29.7426ZM31.5 27H34.5V24H31.5V27ZM36 25.5V18H33V25.5H36ZM10.5 26.25C10.3011 26.25 10.1103 26.171 9.96967 26.0303L7.84835 28.1516C8.55161 28.8549 9.50544 29.25 10.5 29.25V26.25ZM9.96967 26.0303C9.82902 25.8897 9.75 25.6989 9.75 25.5H6.75C6.75 26.4946 7.14509 27.4484 7.84835 28.1516L9.96967 26.0303ZM9.75 25.5C9.75 25.3011 9.82902 25.1103 9.96967 24.9697L7.84835 22.8483C7.14509 23.5516 6.75 24.5054 6.75 25.5H9.75ZM9.96967 24.9697C10.1103 24.829 10.3011 24.75 10.5 24.75L10.5 21.75C9.50544 21.75 8.55161 22.1451 7.84835 22.8483L9.96967 24.9697ZM10.5 24.75C10.6989 24.75 10.8897 24.829 11.0303 24.9697L13.1517 22.8483C12.4484 22.1451 11.4946 21.75 10.5 21.75L10.5 24.75ZM11.0303 24.9697C11.171 25.1103 11.25 25.3011 11.25 25.5H14.25C14.25 24.5054 13.8549 23.5516 13.1517 22.8483L11.0303 24.9697ZM11.25 25.5C11.25 25.6989 11.171 25.8897 11.0303 26.0303L13.1517 28.1516C13.8549 27.4484 14.25 26.4946 14.25 25.5H11.25ZM11.0303 26.0303C10.8897 26.171 10.6989 26.25 10.5 26.25V29.25C11.4946 29.25 12.4484 28.8549 13.1517 28.1516L11.0303 26.0303ZM13.5 16.5H4.5V19.5H13.5V16.5ZM6 18V13.5H3V18H6ZM4.5 15H13.5V12H4.5V15ZM21 21H16.5V24H21V21ZM18 22.5V13.5H15V22.5H18ZM16.5 15H21V12H16.5V15ZM27 26.25C26.8517 26.25 26.7067 26.206 26.5833 26.1236L24.9166 28.618C25.5333 29.0301 26.2583 29.25 27 29.25V26.25ZM26.5833 26.1236C26.46 26.0412 26.3639 25.9241 26.3071 25.787L23.5355 26.9351C23.8193 27.6203 24.2999 28.206 24.9166 28.618L26.5833 26.1236ZM26.3071 25.787C26.2503 25.65 26.2355 25.4992 26.2644 25.3537L23.3221 24.7684C23.1774 25.4958 23.2516 26.2498 23.5355 26.9351L26.3071 25.787ZM26.2644 25.3537C26.2933 25.2082 26.3648 25.0746 26.4697 24.9697L24.3484 22.8483C23.8239 23.3728 23.4667 24.041 23.3221 24.7684L26.2644 25.3537ZM26.4697 24.9697C26.5746 24.8648 26.7082 24.7933 26.8537 24.7644L26.2684 21.8221C25.541 21.9667 24.8728 22.3239 24.3484 22.8483L26.4697 24.9697ZM26.8537 24.7644C26.9992 24.7355 27.15 24.7503 27.287 24.8071L28.4351 22.0355C27.7498 21.7516 26.9958 21.6774 26.2684 21.8221L26.8537 24.7644ZM27.287 24.8071C27.4241 24.8639 27.5412 24.96 27.6236 25.0833L30.118 23.4166C29.706 22.7999 29.1203 22.3193 28.4351 22.0355L27.287 24.8071ZM27.6236 25.0833C27.706 25.2067 27.75 25.3517 27.75 25.5H30.75C30.75 24.7583 30.5301 24.0333 30.118 23.4166L27.6236 25.0833ZM27.7505 25.4615C27.7452 25.6691 27.6603 25.8667 27.5135 26.0135L29.6348 28.1348C30.3254 27.4442 30.7245 26.5148 30.7495 25.5385L27.7505 25.4615ZM27.5135 26.0135C27.3667 26.1603 27.1691 26.2452 26.9615 26.2505L27.0385 29.2495C28.0148 29.2245 28.9442 28.8254 29.6348 28.1348L27.5135 26.0135ZM27 18V14.25H24V18H27ZM25.5 15.75H29.25V12.75H25.5V15.75ZM28.0787 15.187L31.0787 18.937L33.4213 17.063L30.4213 13.313L28.0787 15.187ZM32.25 16.5H25.5V19.5H32.25V16.5Z" fill="white" mask="url(#path-1-inside-1_958_1354)"/>
</svg>
