<svg width="36" height="36" viewBox="0 0 36 36" fill="none" xmlns="http://www.w3.org/2000/svg">
<g clip-path="url(#clip0_958_1352)">
<path d="M35.6714 0.328593C35.8272 0.48459 35.9337 0.68291 35.9777 0.898917C36.0217 1.11492 36.0012 1.3391 35.9189 1.54359L22.8262 34.2743C22.7108 34.5626 22.5181 34.8134 22.2694 34.9992C22.0206 35.185 21.7254 35.2986 21.4163 35.3274C21.1071 35.3563 20.796 35.2993 20.5172 35.1627C20.2384 35.0261 20.0026 34.8153 19.8359 34.5533L12.6854 23.3146L1.44666 16.1641C1.18412 15.9976 0.972698 15.7617 0.835714 15.4826C0.698731 15.2035 0.641512 14.892 0.670373 14.5825C0.699235 14.2729 0.813053 13.9773 0.999269 13.7284C1.18549 13.4794 1.43686 13.2867 1.72566 13.1716L34.4564 0.0833428C34.6609 0.00102042 34.8851 -0.019409 35.1011 0.0245924C35.3171 0.0685938 35.5154 0.175087 35.6714 0.330843V0.328593ZM14.9309 22.6576L21.1432 32.4181L31.7924 5.79609L14.9309 22.6576ZM30.2017 4.20534L3.57966 14.8546L13.3424 21.0646L30.2017 4.20534Z" fill="white"/>
</g>
<defs>
<clipPath id="clip0_958_1352">
<rect width="36" height="36" fill="white"/>
</clipPath>
</defs>
</svg>
