<svg width="36" height="36" viewBox="0 0 36 36" fill="none" xmlns="http://www.w3.org/2000/svg">
<path d="M11.25 24.75C11.25 25.3467 11.0129 25.919 10.591 26.341C10.169 26.7629 9.59674 27 9 27C8.40326 27 7.83097 26.7629 7.40901 26.341C6.98705 25.919 6.75 25.3467 6.75 24.75C6.75 24.1533 6.98705 23.581 7.40901 23.159C7.83097 22.7371 8.40326 22.5 9 22.5C9.59674 22.5 10.169 22.7371 10.591 23.159C11.0129 23.581 11.25 24.1533 11.25 24.75ZM29.25 24.75C29.25 25.3467 29.0129 25.919 28.591 26.341C28.169 26.7629 27.5967 27 27 27C26.4033 27 25.831 26.7629 25.409 26.341C24.9871 25.919 24.75 25.3467 24.75 24.75C24.75 24.1533 24.9871 23.581 25.409 23.159C25.831 22.7371 26.4033 22.5 27 22.5C27.5967 22.5 28.169 22.7371 28.591 23.159C29.0129 23.581 29.25 24.1533 29.25 24.75ZM15.75 22.5C15.1533 22.5 14.581 22.7371 14.159 23.159C13.7371 23.581 13.5 24.1533 13.5 24.75C13.5 25.3467 13.7371 25.919 14.159 26.341C14.581 26.7629 15.1533 27 15.75 27H20.25C20.8467 27 21.419 26.7629 21.841 26.341C22.2629 25.919 22.5 25.3467 22.5 24.75C22.5 24.1533 22.2629 23.581 21.841 23.159C21.419 22.7371 20.8467 22.5 20.25 22.5H15.75ZM9 4.5C8.40326 4.5 7.83097 4.73705 7.40901 5.15901C6.98705 5.58097 6.75 6.15326 6.75 6.75V15.525C6.75 16.9313 8.0145 17.982 9.3825 17.7615C11.4188 17.4308 15.282 16.875 18 16.875C20.718 16.875 24.5812 17.4308 26.6175 17.7615C26.9417 17.8143 27.2736 17.796 27.59 17.708C27.9065 17.6199 28.2001 17.4641 28.4504 17.2514C28.7008 17.0387 28.902 16.7742 29.04 16.4761C29.1781 16.178 29.2497 15.8535 29.25 15.525V6.75C29.25 6.15326 29.0129 5.58097 28.591 5.15901C28.169 4.73705 27.5967 4.5 27 4.5H9ZM9 6.75H27V15.525C27 15.528 27 15.528 27 15.525L26.9955 15.534L26.9843 15.5385H26.9753C24.948 15.2123 20.9228 14.625 18 14.625C15.0772 14.625 11.052 15.21 9.0225 15.5385H9.01575L9.0045 15.534L9 15.525C9 15.528 9 15.528 9 15.525V6.75Z" fill="white"/>
<path d="M2.25 5.625C2.25 4.13316 2.84263 2.70242 3.89752 1.64752C4.95242 0.592632 6.38316 0 7.875 0L28.125 0C29.6168 0 31.0476 0.592632 32.1025 1.64752C33.1574 2.70242 33.75 4.13316 33.75 5.625V25.875C33.75 27.7155 32.8657 29.349 31.5 30.375V34.875C31.5 35.1734 31.3815 35.4595 31.1705 35.6705C30.9595 35.8815 30.6734 36 30.375 36H25.875C25.5766 36 25.2905 35.8815 25.0795 35.6705C24.8685 35.4595 24.75 35.1734 24.75 34.875V31.5H11.25V34.875C11.25 35.1734 11.1315 35.4595 10.9205 35.6705C10.7095 35.8815 10.4234 36 10.125 36H5.625C5.32663 36 5.04048 35.8815 4.82951 35.6705C4.61853 35.4595 4.5 35.1734 4.5 34.875V30.375C3.8014 29.851 3.23438 29.1716 2.84385 28.3906C2.45332 27.6095 2.25 26.7483 2.25 25.875V5.625ZM7.875 2.25C6.97989 2.25 6.12145 2.60558 5.48851 3.23851C4.85558 3.87145 4.5 4.72989 4.5 5.625V25.875C4.5 26.7701 4.85558 27.6286 5.48851 28.2615C6.12145 28.8944 6.97989 29.25 7.875 29.25H28.125C29.0201 29.25 29.8786 28.8944 30.5115 28.2615C31.1444 27.6286 31.5 26.7701 31.5 25.875V5.625C31.5 4.72989 31.1444 3.87145 30.5115 3.23851C29.8786 2.60558 29.0201 2.25 28.125 2.25H7.875Z" fill="white"/>
</svg>
