<svg width="96" height="96" viewBox="0 0 96 96" fill="none" xmlns="http://www.w3.org/2000/svg">
<path d="M81.418 45.777C81.418 45.777 81.2227 45.695 81.1407 45.6364C80.9727 45.5543 80.8086 45.4411 80.6407 45.3864C80.4454 45.3317 80.2813 45.3043 80.086 45.277C79.9766 45.277 79.8907 45.2223 79.7813 45.2223H16.2503C16.2503 45.2223 16.055 45.277 15.9456 45.277C15.7503 45.277 15.555 45.3317 15.3909 45.3864C15.1956 45.4411 15.0589 45.527 14.8909 45.6364C14.8089 45.6911 14.6956 45.7184 14.6136 45.777L1.91856 55.3043C0.69586 56.2223 0.445859 57.9723 1.36387 59.1949C1.91856 59.9176 2.75447 60.3043 3.58657 60.3043C4.1686 60.3043 4.75457 60.1363 5.25457 59.7496L13.5046 53.5543V89.6633C13.5046 92.718 16.0046 95.218 19.0593 95.218H77.0043C80.059 95.218 82.559 92.718 82.559 89.6633V53.5543L90.809 59.7496C91.309 60.1402 91.891 60.3043 92.477 60.3043C93.309 60.3043 94.145 59.9137 94.6997 59.1949C95.6176 57.9722 95.3676 56.2222 94.145 55.3043L81.45 45.777H81.418ZM49.527 58.39C49.2223 58.1947 48.8864 58.058 48.527 57.972C48.359 57.9447 48.1676 57.972 47.9997 57.972C47.8317 57.972 47.6403 57.9447 47.4723 57.972C47.1129 58.0541 46.777 58.1947 46.4723 58.39L41.277 61.8627V50.7807H54.777V61.8627L49.5817 58.39H49.527ZM19.027 89.667V50.776H35.695V67.053C35.695 68.0803 36.2497 69.0257 37.1677 69.4983C37.5857 69.721 38.0271 69.8303 38.4724 69.8303C38.9997 69.8303 39.5544 69.6624 39.9997 69.3577L47.9724 64.0257L55.9451 69.3577C56.4178 69.6624 56.9451 69.8303 57.4724 69.8303C57.9177 69.8303 58.363 69.7209 58.7771 69.4983C59.6951 69.0256 60.2498 68.0803 60.2498 67.053V50.776H76.9178V89.667H18.9728H19.027ZM37.945 25.917L36.9177 33.749C36.7771 34.749 37.2224 35.749 38.0271 36.3584C38.8591 36.9678 39.9451 37.0537 40.8591 36.6084L47.9997 33.2178L55.1403 36.6084C55.5309 36.7764 55.9176 36.8857 56.3356 36.8857C56.9176 36.8857 57.4762 36.7178 57.9762 36.3584C58.8082 35.749 59.2262 34.749 59.0856 33.749L58.0583 25.917L63.5036 20.1943C64.1989 19.4443 64.4489 18.3896 64.113 17.417C63.781 16.4443 62.9724 15.7217 61.9724 15.5576L54.2224 14.1123L50.4451 7.167C49.4724 5.3897 46.5271 5.3897 45.5545 7.167L41.7772 14.1123L34.0272 15.5576C33.0272 15.7529 32.2225 16.4756 31.8866 17.417C31.5546 18.3623 31.8045 19.4443 32.496 20.1943L37.9413 25.917H37.945ZM44.1091 19.3037C44.9411 19.1357 45.6364 18.6357 46.0271 17.9131L47.9998 14.3037L49.9725 17.9131C50.3631 18.6358 51.0819 19.1631 51.8905 19.3037L55.9452 20.0537L53.1132 23.0537C52.5312 23.6631 52.2812 24.499 52.3905 25.331L52.9179 29.413L49.1952 27.6357C48.8046 27.4677 48.4178 27.3584 47.9999 27.3584C47.5819 27.3584 47.1952 27.4404 46.8046 27.6357L43.0819 29.413L43.6092 25.331C43.7186 24.499 43.4412 23.663 42.8866 23.0537L40.0546 20.0537L44.1091 19.3037ZM11.8901 3.5537C11.8901 2.0264 13.1401 0.776396 14.6674 0.776396C24.8904 0.776396 28.2764 10.5811 28.4174 10.9994C28.8901 12.4447 28.1127 14.0267 26.6674 14.5267C26.3901 14.6087 26.0854 14.6673 25.7768 14.6673C24.6088 14.6673 23.5268 13.9447 23.1362 12.7767C23.0268 12.472 20.8042 6.33142 14.6635 6.33142C13.1362 6.33142 11.8862 5.08142 11.8862 3.55412L11.8901 3.5537ZM0.7771 22.9987C0.7771 21.4714 2.0271 20.2214 3.5544 20.2214C21.8864 20.2214 28.1094 35.2214 28.3594 35.8624C28.9414 37.2804 28.25 38.8897 26.8047 39.4718C26.4727 39.6124 26.1094 39.6671 25.7774 39.6671C24.668 39.6671 23.6368 38.9991 23.1954 37.9171C22.9727 37.3898 18.0274 25.7761 3.5544 25.7761C2.0271 25.7761 0.7771 24.526 0.7771 22.9987ZM67.5821 10.9987C67.7227 10.5807 71.1094 0.775696 81.3321 0.775696C82.8594 0.775696 84.1094 2.0257 84.1094 3.553C84.1094 5.0803 82.8594 6.3303 81.3321 6.3303C75.1641 6.3303 72.9415 12.5256 72.8594 12.7756C72.4688 13.9162 71.3867 14.6662 70.2188 14.6662C69.9141 14.6662 69.6368 14.6115 69.3282 14.5256C67.8829 14.0256 67.1055 12.4709 67.5782 11.0256L67.5821 10.9987ZM67.6407 35.8577C67.8907 35.2171 74.1134 20.2167 92.4457 20.2167C93.973 20.2167 95.223 21.4667 95.223 22.994C95.223 24.5213 93.973 25.7713 92.4457 25.7713C77.9457 25.7713 73.0007 37.4393 72.8047 37.9393C72.3594 39.0213 71.332 39.662 70.2227 39.662C69.8907 39.662 69.5274 39.6073 69.1954 39.4667C67.7774 38.8847 67.086 37.2714 67.6681 35.8573L67.6407 35.8577Z" fill="#FE5B2C"/>
</svg>
